<?xml version="1.0" encoding="utf-8"?>
<!-- Generator: Adobe Illustrator 18.0.0, SVG Export Plug-In . SVG Version: 6.00 Build 0)  -->
<!DOCTYPE svg PUBLIC "-//W3C//DTD SVG 1.1//EN" "http://www.w3.org/Graphics/SVG/1.1/DTD/svg11.dtd">
<svg version="1.1" id="Layer_1" xmlns="http://www.w3.org/2000/svg" xmlns:xlink="http://www.w3.org/1999/xlink" x="0px" y="0px"
	 viewBox="0 0 612 792" enable-background="new 0 0 612 792" xml:space="preserve">
<path fill="#FF0000" d="M30.3,0C13.6,0,0,13.6,0,30.3c0,21.6,25.9,49.7,27.1,50.9c0.8,0.9,2,1.4,3.3,1.4c1.2,0,2.4-0.5,3.3-1.4
	c1.1-1.2,27.1-29.3,27.1-50.9C60.6,13.6,47,0,30.3,0z M11,30.3c0-10.7,8.7-19.4,19.4-19.4s19.4,8.7,19.4,19.4
	c0,10.7-8.7,19.4-19.4,19.4C19.7,49.7,11,41,11,30.3z"/>
</svg>
