<?xml version="1.0" encoding="utf-8"?>
<!-- Generator: Adobe Illustrator 18.0.0, SVG Export Plug-In . SVG Version: 6.00 Build 0)  -->
<!DOCTYPE svg PUBLIC "-//W3C//DTD SVG 1.1//EN" "http://www.w3.org/Graphics/SVG/1.1/DTD/svg11.dtd">
<svg version="1.1" id="Layer_1" xmlns="http://www.w3.org/2000/svg" xmlns:xlink="http://www.w3.org/1999/xlink"
	 viewBox="0 0 136 39" xml:space="preserve">
<path fill="#fff" d="M136,4.7c0,9.9,0,19.8,0,29.6c0,0.2,0,0.3-0.1,0.5c-0.2,1.1-0.7,2.1-1.6,2.8c-1,0.9-2.3,1.4-3.7,1.4
	c-33.7,0-91.6,0-125.3,0c-0.4,0-0.8,0-1.2-0.1c-2.4-0.5-4.2-2.6-4.2-5c0-9.6,0-19.1,0-28.7c0-0.2,0-0.5,0.1-0.7
	c0.4-2.1,1.6-3.5,3.7-4.2c0.3-0.1,0.7-0.1,1-0.2c34.1,0,92.4,0,126.6,0c0.1,0,0.2,0,0.3,0.1c2.1,0.4,3.8,2,4.2,4
	C135.9,4.3,135.9,4.5,136,4.7z M31.8,25.7C31.7,25.6,31.7,25.6,31.8,25.7c-0.1-0.1-0.2-0.1-0.3-0.2c-0.8-0.4-1.5-1-2.1-1.7
	C28.4,22.7,28,21.4,28,20c0-0.5,0.1-0.9,0.1-1.4c0.2-1.2,0.8-2.2,1.7-3c0.3-0.3,0.7-0.5,1.1-0.8c0.1,0,0.1-0.1,0.2-0.2
	c-0.3-0.3-0.5-0.6-0.8-0.9c-0.5-0.5-1.1-1-1.8-1.3c-0.8-0.4-1.7-0.6-2.6-0.6c-0.9-0.1-1.8,0.1-2.6,0.4c-0.8,0.3-1.5,0.5-2.2,0.8
	c-0.4,0.1-0.8,0.2-1.1,0c-0.5-0.2-1.1-0.4-1.6-0.6c-0.9-0.3-1.8-0.6-2.8-0.5c-0.6,0-1.2,0.1-1.8,0.4c-1.2,0.4-2.1,1.1-2.9,2
	C10,15.1,9.5,16,9.1,17.1c-0.2,0.7-0.4,1.5-0.4,2.2c0,0.7,0,1.5,0,2.2c0.1,1,0.3,2.1,0.6,3.1c0.4,1.3,0.9,2.6,1.6,3.8
	c0.5,0.9,1.1,1.8,1.8,2.6c0.4,0.6,0.9,1.1,1.5,1.5c0.8,0.6,1.7,0.8,2.7,0.5c0.5-0.1,1-0.3,1.5-0.5c0.6-0.2,1.2-0.4,1.9-0.5
	c1-0.1,1.9,0.1,2.8,0.5c0.5,0.2,1,0.4,1.5,0.5c0.7,0.2,1.5,0.1,2.2-0.2c0.6-0.3,1.2-0.8,1.6-1.3c0.6-0.6,1.1-1.3,1.5-2
	c0.8-1.1,1.3-2.4,1.8-3.7C31.8,25.8,31.8,25.7,31.8,25.7z M53.4,21.5c0,0.1,0,0.2,0,0.3c0,0.3,0,0.7,0,1c0,2.9,0,5.8,0,8.6
	c0,0.1,0,0.2,0,0.3c0.5,0,0.9,0,1.3,0c0-1.3,0-2.6,0-4c0.1,0.1,0.1,0.1,0.1,0.1c0.5,0.6,1.2,0.9,1.9,1c1.4,0.1,2.6-0.6,3.2-1.8
	c0.6-1.2,0.6-2.5,0.1-3.8c-0.5-1.1-1.5-2-3-1.9c-0.9,0-1.7,0.4-2.3,1.2c0,0.1-0.1,0.1-0.2,0.2c0-0.5,0-0.8-0.1-1.3
	C54.2,21.5,53.9,21.5,53.4,21.5z M63.5,27.8C63.5,27.8,63.5,27.8,63.5,27.8c0.1,0,0.1,0.1,0.1,0.1c0.3,0.4,0.6,0.6,1.1,0.8
	c0.6,0.2,1.2,0.3,1.8,0.1c1-0.2,1.8-0.8,2.2-1.8c0.4-0.8,0.5-1.7,0.4-2.6c-0.1-0.6-0.2-1.1-0.5-1.7c-1.2-2-4-1.9-5.1-0.2
	c0,0-0.1,0.1-0.1,0.1c0-0.4,0-0.8-0.1-1.2c-0.4,0-0.8,0-1.2,0c0.1,3.4,0,6.8,0.1,10.2c0.4,0,0.9,0,1.3,0
	C63.5,30.4,63.5,29.1,63.5,27.8z M45.9,25.5c0.1,0,0.2,0,0.2,0c1,0,2.1,0,3.1,0c0.2,0,0.2,0,0.3,0.2c0.3,0.9,0.6,1.8,0.9,2.7
	c0,0.1,0.1,0.2,0.1,0.3c0.2,0,0.5,0,0.7,0c0.2,0,0.4,0,0.7,0c-1.2-3.4-2.3-6.8-3.5-10.1c-0.6,0-1.1,0-1.6,0
	c-1.2,3.4-2.3,6.7-3.5,10.1c0.5,0,0.9,0,1.4,0c0.2-0.5,0.4-1.1,0.5-1.6C45.6,26.6,45.7,26.1,45.9,25.5z M79.4,18.9
	c-0.2-0.1-0.3-0.1-0.4-0.2c-0.8-0.3-1.6-0.4-2.4-0.3C76,18.5,75.5,18.7,75,19c-1.5,0.9-1.7,3.1-0.2,4.2c0.5,0.4,1,0.6,1.6,0.8
	c0.3,0.1,0.6,0.2,0.9,0.4c0.3,0.1,0.5,0.3,0.7,0.5c0.6,0.5,0.6,1.9-0.2,2.5c-0.3,0.2-0.7,0.3-1.1,0.4c-0.9,0.1-1.7-0.1-2.5-0.5
	c-0.1,0-0.1,0-0.2-0.1c-0.1,0.4-0.2,0.7-0.3,1.1c0.2,0.1,0.3,0.2,0.5,0.2c1,0.4,2.1,0.5,3.2,0.3c0.6-0.1,1.1-0.3,1.6-0.8
	c0.6-0.6,0.9-1.3,0.9-2.2c0-0.8-0.3-1.4-0.9-1.9c-0.5-0.4-1-0.7-1.6-0.9c-0.4-0.1-0.7-0.3-1-0.4c-0.3-0.1-0.5-0.3-0.8-0.5
	c-0.3-0.3-0.4-0.7-0.4-1.2c0.1-0.6,0.5-1,1.1-1.2c0.6-0.2,1.2-0.2,1.7,0c0.4,0.1,0.7,0.2,1.1,0.3C79.1,19.6,79.2,19.3,79.4,18.9z
	 M93.1,25.1c0-0.4-0.1-0.7-0.1-1.1c-0.3-1.2-1-2.1-2.1-2.5c-0.6-0.2-1.2-0.3-1.8-0.2c-1.4,0.2-2.4,1-2.9,2.3c-0.3,1-0.3,1.9,0,2.9
	c0.3,1,1,1.7,2,2.1c0.6,0.2,1.2,0.3,1.8,0.2c1.3-0.2,2.2-0.8,2.8-2C93,26.3,93.1,25.7,93.1,25.1z M105.5,25.3c0.1-0.8,0-1.5-0.2-2.2
	c-0.4-1-1.1-1.7-2.3-1.8c-1.5-0.2-2.8,0.5-3.5,1.8c-0.6,1.1-0.6,2.3-0.2,3.5c0.4,1.2,1.2,1.9,2.4,2.1c1.1,0.2,2.2,0.1,3.3-0.3
	c0.1,0,0.1-0.1,0.2-0.1c-0.1-0.3-0.1-0.6-0.2-0.9c-0.1,0-0.1,0-0.2,0.1c-0.7,0.3-1.5,0.4-2.2,0.3c-1.2-0.1-2-0.9-2.1-2.2
	c0-0.1,0-0.2,0-0.3C102.1,25.3,103.8,25.3,105.5,25.3z M20.2,11.5c0.8,0.1,1.5-0.1,2.2-0.4c0.7-0.3,1.2-0.8,1.7-1.3
	c0.6-0.6,1-1.3,1.3-2C25.8,7,26,6.1,25.9,5.2c0-0.1,0-0.1,0-0.2c-0.3,0-0.5,0-0.8,0.1c-1.3,0.3-2.4,0.9-3.3,1.9
	c-0.7,0.8-1.2,1.6-1.4,2.6C20.2,10.3,20.1,10.9,20.2,11.5z M83.1,22.5c0.7,0,1.3,0,1.9,0c0-0.3,0-0.7,0-1c-0.6,0-1.3,0-1.9,0
	c0-0.7,0-1.4,0-2.1c-0.5,0.1-0.9,0.2-1.3,0.3c0,0.3,0,0.6,0,0.9c0,0.3,0,0.6,0,0.9c-0.4,0-0.8,0-1.1,0c0,0.3,0,0.7,0,1
	c0.4,0,0.7,0,1.1,0c0,0.1,0,0.2,0,0.3c0,1.2,0,2.5,0,3.7c0,0.4,0,0.8,0.2,1.2c0.2,0.5,0.5,0.9,1.1,1c0.4,0.1,0.8,0.1,1.2,0.1
	c0.2,0,0.5-0.1,0.7-0.1c0-0.4,0-0.7-0.1-1c-0.3,0-0.6,0-0.9,0c-0.4,0-0.7-0.2-0.8-0.6c-0.1-0.2-0.1-0.5-0.1-0.7c0-1.3,0-2.5,0-3.8
	C83.1,22.6,83.1,22.6,83.1,22.5z M42.4,15.1c0.7,0.1,1.3,0.1,1.9,0.1c0.4,0,0.8-0.1,1.2-0.2c0.9-0.3,1.5-0.9,1.9-1.8
	c0.3-0.7,0.3-1.5,0.1-2.3c-0.2-1-0.9-1.7-1.9-2c-0.4-0.1-0.8-0.2-1.2-0.2c-0.5,0-1,0-1.5,0c-0.2,0-0.4,0.1-0.6,0.1
	C42.4,10.9,42.4,13,42.4,15.1z M96.1,28.7c0-0.1,0-0.2,0-0.3c0-1.2,0-2.3,0-3.5c0-0.5,0.1-1,0.4-1.5c0.4-0.6,0.9-0.9,1.6-0.9
	c0.1,0,0.2,0,0.4,0c0-0.4,0-0.8,0-1.2c-1.2-0.1-2,0.5-2.5,1.5c0-0.5,0-0.9-0.1-1.4c-0.4,0-0.8,0-1.2,0c0,0.1,0,0.1,0,0.2
	c0,0.4,0,0.7,0,1.1c0,1.9,0,3.8,0,5.6c0,0.1,0,0.2,0,0.3C95.2,28.7,95.7,28.7,96.1,28.7z M79.8,11.1c-0.1-0.1-0.1-0.1-0.1-0.1
	c-0.3-0.4-0.8-0.6-1.2-0.6c-0.8,0-1.5,0.4-1.8,1.1c-0.3,0.7-0.4,1.3-0.2,2.1c0.2,0.8,0.9,1.7,2.1,1.6c0.5,0,0.9-0.3,1.2-0.7
	c0,0,0.1-0.1,0.1-0.2c0,0.3,0,0.5,0,0.7c0.3,0,0.5,0,0.7,0c0-2.2,0-4.4,0-6.6c-0.3,0-0.5,0-0.8,0C79.8,9.3,79.8,10.2,79.8,11.1z
	 M57.7,14.2c-0.4-1.2-0.7-2.4-1.1-3.6c-0.3,0-0.5,0-0.7,0c-0.4,1.2-0.8,2.4-1.2,3.7c-0.3-1.2-0.6-2.5-1-3.7c-0.3,0-0.6,0-0.9,0
	c0.5,1.5,0.9,3,1.4,4.5c0.3,0,0.5,0,0.8,0c0.4-1.2,0.9-2.3,1.1-3.6c0.4,1.2,0.7,2.4,1.1,3.6c0.3,0,0.5,0,0.8,0c0.5-1.5,1-3,1.5-4.5
	c-0.3,0-0.6,0-0.8,0C58.4,11.8,58.1,13,57.7,14.2z M103.1,15.1c0-0.1,0-0.1,0-0.2c0-0.9,0-1.8,0-2.7c0-0.3-0.1-0.5-0.2-0.8
	c-0.2-0.5-0.5-0.8-1-0.9c-0.7-0.2-1.3,0-1.7,0.5c0,0.1-0.1,0.1-0.2,0.2c0-1,0-1.9,0-2.8c-0.3,0-0.5,0-0.8,0c0,2.2,0,4.4,0,6.6
	c0.3,0,0.5,0,0.8,0c0-0.1,0-0.2,0-0.3c0-0.8,0-1.6,0-2.4c0-0.3,0.1-0.6,0.3-0.9c0.3-0.4,0.7-0.5,1.2-0.4c0.4,0.1,0.6,0.5,0.7,0.9
	c0,0.2,0,0.4,0,0.6c0,0.7,0,1.4,0,2.2c0,0.1,0,0.2,0,0.3C102.6,15.1,102.8,15.1,103.1,15.1z M50.4,15.2c0.9,0,1.8-0.5,2.2-1.5
	c0.1-0.4,0.2-0.8,0.1-1.3c-0.1-0.6-0.3-1.1-0.8-1.5c-0.5-0.4-1-0.5-1.5-0.5c-0.9,0.1-1.6,0.5-1.9,1.3c-0.2,0.5-0.3,1-0.2,1.5
	C48.4,14.5,49.3,15.2,50.4,15.2z M85.9,15.2c1,0,1.9-0.5,2.2-1.5c0.1-0.4,0.2-0.9,0.1-1.3c0-0.4-0.2-0.8-0.4-1.1
	c-0.5-0.6-1.1-0.9-1.9-0.8c-1.1,0-1.8,0.7-2.1,1.5c-0.1,0.4-0.2,0.9-0.1,1.3C83.9,14.5,84.9,15.2,85.9,15.2z M66.9,12.8
	c0,0.2,0,0.4,0.1,0.6c0.2,0.8,0.6,1.3,1.4,1.6c0.3,0.1,0.6,0.1,0.9,0.1c0.9-0.1,1.6-0.5,1.9-1.4c0.2-0.6,0.3-1.3,0-1.9
	c-0.2-0.7-0.7-1.1-1.3-1.3c-0.3-0.1-0.6-0.1-0.9-0.1c-0.9,0.1-1.6,0.5-1.9,1.3C67,12.1,66.9,12.5,66.9,12.8z M107.9,13
	c0.2-0.8-0.1-1.7-0.7-2.1c-0.2-0.1-0.4-0.3-0.6-0.3c-1-0.2-2,0.2-2.5,1.2c-0.3,0.6-0.3,1.3-0.1,2c0.2,0.7,0.7,1.2,1.5,1.4
	c0.7,0.2,1.4,0.1,2.1-0.1c0,0,0.1-0.1,0.1-0.1c-0.1-0.2-0.1-0.4-0.1-0.6c-0.1,0-0.2,0.1-0.2,0.1c-0.5,0.1-1,0.2-1.4,0.1
	c-0.7-0.1-1.2-0.8-1.1-1.6C105.8,13,106.9,13,107.9,13z M64.1,15.1c0-0.1,0-0.2,0-0.3c0-0.8,0-1.6,0-2.5c0-0.2,0-0.3,0-0.5
	c-0.1-0.7-0.5-1.2-1.1-1.3c-0.7-0.2-1.4,0.1-1.9,0.6c0,0-0.1,0.1-0.1,0.1c0-0.2,0-0.5-0.1-0.7c-0.2,0-0.5,0-0.7,0c0,1.5,0,3,0,4.5
	c0.3,0,0.5,0,0.8,0c0-0.1,0-0.2,0-0.3c0-0.5,0-1,0-1.5c0-0.4,0-0.7,0-1.1c0-0.5,0.4-0.9,0.9-1c0.7-0.2,1.1,0.1,1.3,0.7
	c0,0.1,0.1,0.2,0.1,0.4c0,0.8,0,1.7,0,2.5c0,0.1,0,0.2,0,0.3C63.6,15.1,63.8,15.1,64.1,15.1z M75.6,15.1c0-0.5,0-0.9,0-1.4
	c0-0.5,0-1,0-1.5c0-0.2,0-0.5-0.1-0.7c-0.2-0.5-0.5-0.9-1.1-1c-0.7-0.2-1.3,0-2,0.3c0,0-0.1,0.1-0.1,0.1c0.1,0.2,0.1,0.3,0.2,0.5
	c0,0,0.1,0,0.1,0c0.1,0,0.1-0.1,0.2-0.1c0.4-0.2,0.9-0.3,1.4-0.2c0.5,0.1,0.7,0.6,0.6,1.1c-0.1,0-0.2,0-0.2,0c-0.3,0-0.6,0.1-1,0.1
	c-0.4,0.1-0.8,0.3-1.2,0.6c-0.6,0.6-0.5,2,0.6,2.3c0.6,0.1,1.2,0,1.6-0.4c0.1-0.1,0.1-0.1,0.2-0.2c0,0.2,0.1,0.4,0.1,0.5
	C75.1,15.1,75.3,15.1,75.6,15.1z M89.9,15.1c0-0.1,0-0.2,0-0.3c0-0.8,0-1.6,0-2.3c0-0.3,0.1-0.7,0.3-0.9c0.3-0.4,0.7-0.5,1.2-0.3
	c0.4,0.1,0.6,0.5,0.7,0.9c0,0.2,0,0.4,0,0.6c0,0.7,0,1.5,0,2.2c0,0.1,0,0.2,0,0.3c0.3,0,0.5,0,0.8,0c0-0.1,0-0.1,0-0.1
	c0-0.9,0-1.9,0-2.8c0-0.3-0.1-0.5-0.2-0.8c-0.2-0.4-0.5-0.7-1-0.9c-0.7-0.2-1.4,0-1.9,0.6c0,0-0.1,0.1-0.1,0.1c0-0.3,0-0.5-0.1-0.7
	c-0.3,0-0.5,0-0.7,0c0,1.5,0,3,0,4.5C89.3,15.1,89.6,15.1,89.9,15.1z M98.4,14.5c-0.2,0-0.3,0-0.5,0c-0.3,0-0.5-0.2-0.6-0.5
	c0-0.2,0-0.3,0-0.5c0-0.7,0-1.4,0-2.1c0-0.1,0-0.1,0-0.2c0.4,0,0.8,0,1.2,0c0-0.2,0-0.4,0-0.6c-0.4,0-0.8,0-1.2,0c0-0.4,0-0.9,0-1.3
	c-0.3,0.1-0.5,0.1-0.8,0.2c0,0.4,0,0.7,0,1.1c-0.2,0-0.5,0-0.7,0c0,0.2,0,0.4,0,0.6c0.2,0,0.5,0,0.7,0c0,0.1,0,0.2,0,0.3
	c0,0.7,0,1.4,0,2.1c0,0.2,0,0.4,0,0.6c0.1,0.4,0.2,0.7,0.6,0.8c0.4,0.2,0.9,0.1,1.3,0c0-0.1,0-0.2,0-0.3
	C98.5,14.7,98.4,14.6,98.4,14.5z M65.2,8.4c0,2.2,0,4.4,0,6.6c0.1,0,0.2,0,0.3,0c0.2,0,0.4,0,0.5,0c0-2.2,0-4.4,0-6.6
	C65.8,8.4,65.5,8.4,65.2,8.4z"/>
<path fill="#fff" d="M54.8,25.2c0-0.4,0-0.8,0.1-1.2c0.3-0.8,0.8-1.4,1.6-1.6c0.8-0.2,1.5,0.1,2,0.8c0.3,0.4,0.4,0.8,0.5,1.3
	c0.1,0.7,0,1.4-0.2,2c-0.3,0.7-0.8,1.2-1.5,1.3c-1.5,0.3-2.4-0.8-2.5-1.7C54.8,25.8,54.8,25.5,54.8,25.2z"/>
<path fill="#fff" d="M65.6,27.8c-1.1,0-2.1-0.9-2.1-1.9c0-0.5,0-1,0-1.4c0-0.6,0.3-1.1,0.7-1.6c0.9-0.9,2.4-0.7,3.1,0.3
	c0.3,0.5,0.5,1,0.5,1.5c0,0.6,0,1.2-0.3,1.8c-0.3,0.7-0.8,1.1-1.5,1.2C65.8,27.8,65.7,27.8,65.6,27.8z"/>
<path fill="#fff" d="M49.3,24.5c-1,0-2,0-3.1,0c0.5-1.6,1.1-3.1,1.5-4.7C48.1,21.4,48.8,22.9,49.3,24.5z"/>
<path fill="#fff" d="M87.2,25.1c0-0.6,0.1-1.1,0.4-1.6c0.3-0.6,0.8-1,1.4-1.1c1-0.2,1.7,0.2,2.2,0.9c0.4,0.6,0.5,1.2,0.5,1.9
	c0,0.6-0.1,1.1-0.4,1.6c-0.3,0.5-0.7,0.9-1.3,1c-0.7,0.2-1.4,0-1.9-0.5c-0.4-0.4-0.7-0.9-0.8-1.5C87.3,25.6,87.3,25.4,87.2,25.1z"/>
<path fill="#fff" d="M104.3,24.4c-1.3,0-2.6,0-3.9,0c0-0.1,0-0.2,0-0.3c0.1-0.5,0.3-0.9,0.6-1.2c0.6-0.7,1.6-0.8,2.2-0.5
	c0.3,0.1,0.6,0.4,0.8,0.7C104.2,23.4,104.3,24,104.3,24.4z"/>
<path fill="#fff" d="M43.2,14.4c0-1.7,0-3.3,0-5c0.1,0,0.2,0,0.3-0.1c0.5-0.1,1.1-0.1,1.6,0.1c0.9,0.3,1.5,1,1.6,1.9
	c0,0.4,0,0.9-0.1,1.3c-0.2,0.9-0.8,1.4-1.6,1.7C44.4,14.5,43.8,14.5,43.2,14.4z"/>
<path fill="#fff" d="M79.8,12.8c0,0.2,0,0.4,0,0.6c0,0.6-0.5,1.1-1,1.1c-0.6,0.1-1.1-0.1-1.4-0.7c-0.3-0.7-0.3-1.4,0-2.1
	c0.3-0.5,0.8-0.7,1.4-0.6c0.6,0.1,0.9,0.6,1,1.2C79.8,12.5,79.8,12.6,79.8,12.8C79.8,12.8,79.8,12.8,79.8,12.8z"/>
<path fill="#fff" d="M51.8,12.8c0,0.4-0.1,0.8-0.3,1.1c-0.5,0.9-1.7,0.9-2.2,0c-0.4-0.7-0.4-1.5,0-2.2c0.5-0.8,1.7-0.8,2.2,0
	C51.7,12,51.8,12.4,51.8,12.8z"/>
<path fill="#fff" d="M87.3,12.8c0,0.4-0.1,0.8-0.3,1.1c-0.5,0.8-1.7,0.8-2.2,0c-0.4-0.7-0.4-1.5,0-2.2c0.5-0.8,1.7-0.9,2.2,0
	C87.3,12.1,87.3,12.4,87.3,12.8z"/>
<path fill="#fff" d="M67.8,12.8c0-0.4,0.1-0.7,0.2-1.1c0.3-0.5,0.7-0.7,1.2-0.7c0.5,0,0.9,0.3,1.1,0.7c0.3,0.7,0.4,1.4,0,2.1
	c-0.3,0.6-0.9,0.8-1.5,0.6c-0.3-0.1-0.6-0.3-0.7-0.6C67.8,13.6,67.8,13.2,67.8,12.8z"/>
<path fill="#fff" d="M104.7,12.3c0-0.3,0.1-0.6,0.3-0.9c0.4-0.5,1-0.5,1.4-0.3c0.4,0.2,0.6,0.5,0.6,0.9c0,0.1,0,0.2,0,0.3
	C106.3,12.3,105.6,12.3,104.7,12.3z"/>
<path fill="#fff" d="M74.7,12.8c0,0.3,0,0.6,0,0.9c0,0.5-0.5,0.9-1,0.9c0,0-0.1,0-0.1,0c-0.4,0-0.7-0.2-0.8-0.5
	c-0.1-0.4,0-0.8,0.4-1c0.3-0.2,0.7-0.3,1-0.3C74.3,12.8,74.5,12.8,74.7,12.8z"/>
</svg>
