<?xml version="1.0" encoding="utf-8"?>
<!-- Generator: Adobe Illustrator 18.0.0, SVG Export Plug-In . SVG Version: 6.00 Build 0)  -->
<!DOCTYPE svg PUBLIC "-//W3C//DTD SVG 1.1//EN" "http://www.w3.org/Graphics/SVG/1.1/DTD/svg11.dtd">
<svg version="1.1" id="Layer_1" xmlns="http://www.w3.org/2000/svg" xmlns:xlink="http://www.w3.org/1999/xlink" x="0px" y="0px"
	 viewBox="0 0 136 39" enable-background="new 0 0 136 39" xml:space="preserve">
<path fill="#fff" d="M136,4.3c0-0.8-0.2-1.5-0.6-2.1c-0.9-1.5-2.2-2.1-3.9-2.1C110.3,0,89.2,0,68,0C46.9,0,25.8,0,4.7,0
	C4.4,0,4,0,3.7,0.1C1.6,0.3,0,2.2,0,4.2c0,10.2,0,20.4,0,30.5c0,0.4,0.1,0.9,0.2,1.3C0.9,37.9,2.5,39,4.5,39c42.3,0,84.7,0,127,0
	c0.1,0,0.2,0,0.2,0c2.3,0,4.3-1.9,4.3-4.3C136,24.6,136,14.4,136,4.3z M76.2,6.2c0.3,0,0.6,0,1,0c0.1,0,0.2,0.1,0.3,0.3
	c0.8,1.3,1.6,2.6,2.4,3.8c0.1,0.1,0.1,0.2,0.2,0.4c0-1.5,0-3,0-4.4c0.3,0,0.6,0,1,0c0,2.1,0,4.1,0,6.3c-0.3,0-0.5,0-0.8,0
	c-0.1,0-0.2-0.1-0.3-0.3c-0.8-1.3-1.7-2.7-2.5-4c-0.1-0.1-0.1-0.2-0.3-0.4c0,1.6,0,3.1,0,4.7c-0.3,0-0.6,0-1,0
	C76.2,10.4,76.2,8.3,76.2,6.2z M72,6.1c1.8,0,3.2,1.5,3.2,3.3c0,1.9-1.4,3.3-3.3,3.3c-1.8,0-3.2-1.4-3.2-3.3
	C68.7,7.5,70.2,6.1,72,6.1z M60.2,6.2c0.3,0,0.6,0,1,0c0,2.1,0,4.1,0,6.2c-0.3,0-0.6,0-1,0C60.2,10.4,60.2,8.3,60.2,6.2z M48.6,6.2
	c1.2,0,2.5,0,3.7,0c0,0.3,0,0.6,0,0.9c-0.9,0-1.8,0-2.7,0c0,0.6,0,1.1,0,1.7c0.8,0,1.6,0,2.5,0c0,0.3,0,0.6,0,0.9
	c-0.8,0-1.6,0-2.5,0c0,0.6,0,1.2,0,1.7c0.9,0,1.8,0,2.7,0c0,0.3,0,0.6,0,0.9c-1.2,0-2.5,0-3.7,0C48.6,10.4,48.6,8.3,48.6,6.2z
	 M42.7,6.6c1.1-0.7,2.6-0.7,3.7,0c0.2,0.1,0.3,0.3,0.5,0.4c-0.2,0.3-0.4,0.5-0.7,0.7C45.7,7.2,45.1,7,44.4,7c-0.5,0-1,0.2-1.3,0.6
	c-0.7,0.6-1,1.9-0.5,2.8c0.5,0.9,1.6,1.4,2.6,1.2c0.9-0.2,1.5-0.9,1.5-1.6c-0.7,0-1.4,0-2.2,0c0-0.3,0-0.6,0-0.9c1,0,2.1,0,3.1,0
	c0.4,1.2-0.2,2.6-1.4,3.2c-1.9,1-4.3,0.1-4.8-2.2C41,8.7,41.6,7.4,42.7,6.6z M27.7,14.8c-1.4,1.4-2.8,2.7-4.2,4
	c-4.4-4.5-8.9-9-13.3-13.6C16.1,8.2,21.9,11.5,27.7,14.8z M8.4,32.4c0-0.1,0-0.2,0-0.2c0-8.4,0-16.8,0-25.1c0-0.7,0.3-1.2,0.8-1.6
	c4.6,4.7,9.2,9.4,13.8,14.1c-4.6,4.7-9.2,9.4-13.9,14.1C8.7,33.3,8.4,32.9,8.4,32.4z M10.3,33.8C10.3,33.7,10.2,33.7,10.3,33.8
	c4.4-4.6,8.9-9.1,13.3-13.6c1.4,1.3,2.7,2.7,4.1,4C21.8,27.4,16.1,30.6,10.3,33.8z M34.2,19.9c-0.1,0.6-0.6,1-1.1,1.3
	c-1.5,0.8-3,1.7-4.6,2.5c-0.1,0-0.3,0-0.3,0c-1.3-1.3-2.7-2.7-4-4c0,0,0-0.1-0.1-0.1c1.4-1.4,2.8-2.8,4.3-4.2
	c0.6,0.4,1.4,0.8,2.1,1.2c0.9,0.5,1.7,1,2.6,1.5c0.5,0.3,0.9,0.7,1.1,1.3C34.2,19.4,34.2,19.6,34.2,19.9z M49.8,29.7
	c-3.2,0.9-6.6-0.7-8-3.6c-1.8-3.6,0.1-7.9,4-9.2c2.4-0.8,4.6-0.4,6.5,1.2c0.1,0.1,0.2,0.2,0.2,0.2c-0.4,0.4-0.8,0.9-1.2,1.3
	c-0.3-0.2-0.5-0.4-0.8-0.6c-3-1.8-6.9,0-7.3,3.6c-0.3,3.1,2.1,5.6,5.2,5.4c0.8-0.1,1.6-0.3,2.3-0.7c1-0.7,1.6-1.6,1.7-2.9
	c-1.5,0-2.9,0-4.4,0c0-0.6,0-1.2,0-1.8c2,0,4.1,0,6.2,0C54.6,25.7,53.1,28.8,49.8,29.7z M53,7.2c0-0.3,0-0.6,0-0.9
	c1.4,0,2.9,0,4.3,0c0,0.3,0,0.6,0,0.9c-0.5,0-1.1,0-1.6,0c0,1.8,0,3.5,0,5.3c-0.4,0-0.7,0-1,0c0-1.7,0-3.5,0-5.3
	C54.1,7.2,53.6,7.2,53,7.2z M59.1,29.9c-2.4,0-4.3-1.9-4.3-4.3c0-2.4,1.9-4.3,4.4-4.3c2.5,0,4.3,1.9,4.3,4.3
	C63.5,28.1,61.6,29.9,59.1,29.9z M62,7.2c0-0.3,0-0.6,0-0.9c1.5,0,2.9,0,4.4,0c0,0.3,0,0.6,0,0.9c-0.6,0-1.1,0-1.7,0
	c0,1.8,0,3.5,0,5.3c-0.3,0-0.6,0-1,0c0-1.8,0-3.5,0-5.3C63.1,7.2,62.6,7.2,62,7.2z M68.6,29.9c-2.5,0-4.3-1.9-4.3-4.3
	c0-2.4,1.9-4.3,4.3-4.3c2.5,0,4.4,1.9,4.4,4.3C73,28,71.1,29.9,68.6,29.9z M82.1,29.8c0,1.9-1.1,3.3-2.8,3.8c-2,0.6-4-0.2-5-2
	c-0.1-0.1-0.1-0.2-0.2-0.3c0.6-0.2,1.1-0.5,1.6-0.7c1,1.4,1.9,1.8,3.2,1.4c1-0.4,1.5-1.4,1.3-3c-0.7,0.7-1.4,1-2.3,1
	c-2,0-3.8-1.6-4.1-3.6c-0.3-2.3,1-4.4,3.3-5c1.1-0.3,2.2,0,3.1,0.9c0-0.3,0-0.5,0-0.7c0.6,0,1.2,0,1.8,0c0,0.1,0,0.1,0,0.2
	C82.1,24.4,82.1,27.1,82.1,29.8z M85.3,29.6c-0.6,0-1.1,0-1.7,0c-0.1,0-0.1-0.1-0.2-0.2c0-0.1,0-0.1,0-0.2c0-3.9,0-7.9,0-11.8
	c0-0.3,0.1-0.4,0.4-0.4c0.5,0,1,0,1.5,0C85.3,21.2,85.3,25.4,85.3,29.6z M92.7,27c0.5,0.3,0.9,0.6,1.4,1c-0.6,0.9-1.3,1.4-2.3,1.7
	c-2.5,0.7-5-0.6-5.5-3.2c-0.5-2.3,0.8-4.6,3.2-5.1c1.8-0.4,3.5,0.5,4.4,2.3c0.1,0.3,0.2,0.6,0.4,0.9c-1.9,0.8-3.9,1.6-5.8,2.4
	C89.1,28.4,91.4,28.8,92.7,27z M104.2,24.6c-0.5,0.1-1,0.2-1.5,0.2c-0.8,0-1.6,0-2.4,0c0,1.6,0,3.2,0,4.8c-0.6,0-1.2,0-1.9,0
	c0-4.2,0-8.4,0-12.6c0,0,0.1,0,0.2,0c1.6,0,3.2,0,4.8,0c1.7,0.1,3.2,1.4,3.6,3C107.5,22.1,106.4,24,104.2,24.6z M110.1,29.6
	c-0.6,0-1.2,0-1.8,0c0-4.2,0-8.4,0-12.6c0.6,0,1.2,0,1.8,0C110.1,21.2,110.1,25.4,110.1,29.6z M118.6,29.2c0,0.1,0,0.2,0,0.4
	c-0.6,0-1.2,0-1.9,0c0-0.3,0-0.6,0-1c-0.1,0.1-0.2,0.2-0.2,0.3c-0.8,1-1.9,1.2-3.1,0.9c-1.1-0.2-1.9-0.9-2.3-2
	c-0.3-1.1,0.1-2.2,1.2-2.8c1.3-0.8,2.6-0.9,4-0.4c0.1,0,0.2,0.1,0.3,0.1c0,0,0,0,0.1,0c0-0.7-0.4-1.3-1.1-1.5
	c-1-0.4-1.9-0.1-2.6,0.8c-0.5-0.2-1.1-0.5-1.7-0.7c0.3-0.6,0.7-1.1,1.3-1.4c1.5-0.9,3.8-0.6,5,0.6c0.6,0.6,0.9,1.4,0.9,2.2
	C118.6,26.1,118.6,27.6,118.6,29.2z M127.3,21.9c-1.7,3.8-3.3,7.6-5,11.3c-0.1,0.2-0.2,0.3-0.5,0.3c-0.5,0-1.1,0-1.6,0
	c0.1-0.2,0.1-0.3,0.2-0.4c0.5-1.2,1.1-2.4,1.6-3.6c0.1-0.2,0.1-0.4,0-0.6c-1-2.3-2.1-4.6-3.1-6.9c-0.1-0.1-0.1-0.3-0.2-0.4
	c0.7,0,1.3,0,1.9,0c0.1,0,0.2,0.2,0.3,0.3c0.7,1.6,1.3,3.3,2,4.9c0,0.1,0.1,0.2,0.2,0.4c0.5-1.3,1-2.6,1.5-3.9
	c0.2-0.5,0.4-0.9,0.6-1.4c0.1-0.2,0.1-0.3,0.4-0.3c0.6,0,1.2,0,1.8,0C127.4,21.7,127.3,21.8,127.3,21.9z"/>
<path fill="#fff" d="M78.7,23.1c-0.9-0.2-1.6,0-2.2,0.6c-1,1-1,2.8,0,3.8c0.9,0.9,2.4,1,3.3,0c0.5-0.5,0.7-1.2,0.8-1.9
	c0-0.3,0-0.5-0.1-0.8C80.1,24,79.6,23.3,78.7,23.1z"/>
<path fill="#fff" d="M103.6,18.8c-1.1-0.1-2.2-0.1-3.3-0.1c0,1.5,0,2.9,0,4.3c0.1,0,0.1,0,0.1,0c0.9,0,1.8,0,2.7,0
	c1.1,0,2-0.9,2.1-2C105.3,20.1,104.6,19,103.6,18.8z"/>
<path fill="#fff" d="M116.6,26.1c-0.5-0.1-1-0.3-1.4-0.4c0,0,0,0.1,0,0.1c-0.6,0-1.1,0.1-1.5,0.4c-0.4,0.3-0.6,0.6-0.6,1.1
	c0.1,0.5,0.4,0.7,0.8,0.8c1.2,0.4,2.6-0.3,2.9-1.6C116.8,26.3,116.8,26.1,116.6,26.1z"/>
<path fill="#fff" d="M69.8,23.3c-0.8-0.5-1.7-0.4-2.5,0.1c-1.2,0.8-1.5,2.6-0.6,3.8c0.8,1.1,2.2,1.4,3.3,0.6
	c0.8-0.5,1.1-1.3,1.1-2.3C71.1,24.6,70.7,23.8,69.8,23.3z"/>
<path fill="#fff" d="M59.2,23c-1.4,0-2.5,1.1-2.5,2.6c0,1.5,1.1,2.6,2.5,2.6c1.4,0,2.4-1.2,2.4-2.6C61.6,24.1,60.6,23,59.2,23z"/>
<path fill="#fff" d="M89.8,23c-1.1,0.3-1.8,1.4-1.6,2.4c1.3-0.5,2.5-1,3.8-1.6C91.6,23.1,90.7,22.8,89.8,23z"/>
<path fill="#fff" d="M72,11.7c1.3,0,2.2-1,2.2-2.3C74.2,8,73.3,7,72,7c-1.3,0-2.2,1-2.2,2.3C69.8,10.7,70.7,11.7,72,11.7z"/>
</svg>
